<svg width="69" height="56" viewBox="0 0 69 56" fill="none" xmlns="http://www.w3.org/2000/svg">
<g filter="url(#filter0_d)">
<path fill-rule="evenodd" clip-rule="evenodd" d="M63.5976 43.8612C63.5882 43.8896 63.5764 43.9181 63.5623 43.9442L63.5628 43.9438C63.5487 43.9723 63.5345 43.9984 63.5063 44.0174C63.4953 44.0348 63.4844 44.0501 63.4734 44.0654C63.4679 44.0731 63.4624 44.0807 63.4569 44.0886C63.4381 44.1123 63.417 44.1385 63.3958 44.1622C63.377 44.1812 63.3582 44.2002 63.337 44.2191C63.3135 44.2429 63.2876 44.2642 63.2617 44.2832C63.2509 44.2905 63.2389 44.2984 63.2266 44.3063C63.2148 44.3138 63.2027 44.3213 63.1912 44.3283C63.1841 44.3319 63.1772 44.3356 63.1704 44.3393C63.1656 44.342 63.1608 44.3447 63.156 44.3473C63.1402 44.3562 63.1241 44.3652 63.1065 44.3734C63.097 44.3782 63.0873 44.3825 63.0773 44.3864C63.0665 44.3908 63.0555 44.3948 63.0444 44.3988C63.0354 44.4021 63.0263 44.4055 63.0172 44.409C63.0109 44.4114 63.0049 44.414 62.9989 44.4167C62.9932 44.4192 62.9874 44.4217 62.9815 44.4239C62.975 44.4265 62.9681 44.4287 62.9607 44.4304C62.956 44.4315 62.9519 44.4315 62.9478 44.4315H62.9465C62.9428 44.4316 62.9391 44.4317 62.9349 44.4327C62.862 44.4517 62.7867 44.4636 62.7091 44.4636C62.6033 44.4636 62.5656 44.4802 62.5656 44.4802C62.5224 44.5308 62.4438 44.7839 62.394 44.9442L62.3893 44.9596C62.2058 45.5529 61.8225 46.787 60.2727 46.787C58.9471 46.787 58.2886 45.8988 57.8068 45.2489L57.8034 45.2444C57.3518 44.6297 57.1802 44.4635 56.8415 44.4635C56.5029 44.4635 56.3335 44.6296 55.8796 45.2419L55.8763 45.2465C55.3945 45.8963 54.7359 46.7846 53.408 46.7846C52.0823 46.7846 51.4238 45.8964 50.942 45.2465L50.9386 45.2419C50.4871 44.6297 50.3154 44.4635 49.9767 44.4635C49.6404 44.4635 49.4687 44.6297 49.0149 45.2444C48.5351 45.8946 47.8742 46.787 46.5455 46.787C45.2175 46.787 44.559 45.8988 44.0772 45.2489L44.0738 45.2444C43.6223 44.6321 43.4506 44.466 43.112 44.466C42.7733 44.466 42.604 44.6321 42.1501 45.2444C41.6703 45.8946 41.0118 46.787 39.6808 46.787C38.3551 46.787 37.6966 45.8988 37.2148 45.2489L37.2114 45.2444C36.7599 44.6321 36.5882 44.466 36.2495 44.466C35.9132 44.466 35.7416 44.6321 35.2877 45.2468C34.8079 45.897 34.1471 46.7894 32.8183 46.7894C31.4927 46.7894 30.8342 45.9012 30.3524 45.2514L30.349 45.2468C29.8974 44.6345 29.7258 44.4684 29.3871 44.4684C29.0508 44.4684 28.8791 44.6346 28.4252 45.2492C27.9455 45.8995 27.2846 46.7918 25.9559 46.7918C25.5349 46.7918 25.1516 46.6186 24.8811 46.3053C24.225 45.5507 24.3567 44.2644 24.6272 42.2281L24.6318 42.1929C24.7284 41.4561 24.8757 40.3326 24.8271 39.7861C23.0704 40.1324 20.5775 43.6854 19.2841 46.2698C19.1242 46.5926 18.7973 46.792 18.4445 46.792C18.4257 46.792 18.4069 46.792 18.3881 46.7896C18.0142 46.7683 17.6873 46.5238 17.5603 46.1678C17.3439 45.5645 15.4955 40.1941 17.4168 37.2228C18.1364 36.1121 19.3029 35.4737 20.7939 35.3764C22.0897 35.291 22.6823 34.9397 22.7952 34.6621C22.8705 34.477 22.7505 34.1613 22.4871 33.8599C21.7863 33.0554 20.22 32.4099 18.4374 32.8988C15.9656 33.5732 13.1954 36.917 12.2617 40.3534C11.9348 41.5614 11.582 43.797 12.9178 45.1806C13.28 45.558 13.2706 46.1584 12.899 46.5238C12.5251 46.8893 11.9325 46.8822 11.5679 46.5049C10.0934 44.979 9.69596 42.6153 10.4462 39.8528C11.4173 36.2739 14.4888 32.0092 17.9458 31.067C20.5209 30.3645 22.7903 31.3328 23.9003 32.6072C24.6694 33.4877 24.8998 34.5011 24.5353 35.3887C24.2179 36.16 23.3336 37.1141 20.916 37.2731C20.0153 37.3324 19.3874 37.6575 18.9947 38.2627C18.2021 39.4873 18.3856 41.6588 18.7454 43.3913C20.1565 41.1058 22.6329 37.7856 25.1963 37.8663C25.6102 37.8806 25.9841 38.0609 26.2475 38.3766C26.5109 38.6898 26.6402 39.0957 26.6872 39.5988C28.4181 38.443 30.9442 37.2991 35.9298 36.7912C30.5253 14.6964 40.685 2.25821 41.1459 1.71C41.1498 1.70603 41.1538 1.7029 41.1575 1.6999C41.1628 1.69571 41.1677 1.69179 41.1718 1.68626C41.2 1.65541 41.2282 1.6293 41.2588 1.6032C41.2776 1.58421 41.2964 1.5676 41.3176 1.55336C41.3465 1.53392 41.3754 1.51766 41.4056 1.50068L41.4258 1.48928C41.4446 1.47742 41.4634 1.46555 41.4846 1.45606C41.5293 1.43707 41.5739 1.42283 41.621 1.41096C41.6319 1.40938 41.6429 1.40569 41.6539 1.402L41.6539 1.40199C41.6594 1.40014 41.6649 1.3983 41.6704 1.39673C41.7338 1.38249 41.7997 1.37537 41.8679 1.37537L42.0066 1.38011C42.2841 1.38011 42.5452 1.50115 42.7239 1.71474C43.1848 2.26032 53.2949 14.6349 47.9871 36.6228C61.8667 37.4439 63.5647 43.0329 63.6305 43.2773C63.6329 43.2868 63.6329 43.2987 63.6352 43.3082L63.6493 43.4007C63.654 43.434 63.6587 43.4672 63.6587 43.5004C63.6587 43.5027 63.6589 43.505 63.6591 43.5073L63.6599 43.5147C63.6602 43.5172 63.6605 43.5198 63.6608 43.5223C63.661 43.5245 63.6611 43.5267 63.6611 43.5289C63.6611 43.5352 63.6608 43.5413 63.6604 43.5473C63.6596 43.5574 63.6584 43.5673 63.6571 43.5778L63.6564 43.5835L63.6561 43.5869C63.6539 43.6191 63.6514 43.6534 63.6446 43.6855C63.6434 43.6927 63.6421 43.6999 63.6406 43.7071C63.6394 43.7132 63.6381 43.7193 63.6368 43.7253C63.6333 43.7405 63.6296 43.7558 63.6258 43.771L63.621 43.7875L63.6177 43.7991C63.6117 43.8204 63.6058 43.8413 63.5976 43.8612ZM42.8081 39.5466H45.2398C50.5949 21.8735 45.5573 9.95955 42.8081 5.22964V39.5466ZM40.9267 5.47874V39.5466H38.6338C33.3824 22.2174 38.1564 10.3792 40.9267 5.47874ZM60.599 44.42L60.6038 44.4046L60.6031 44.4047C60.7136 44.0486 60.9017 43.4648 61.365 43.0543C60.3235 41.7252 57.0381 38.996 47.5018 38.5C47.2949 39.2523 47.0714 40.0141 46.8269 40.7878C46.7022 41.1817 46.34 41.4499 45.9308 41.4499H37.94C37.5307 41.4499 37.1686 41.1817 37.0439 40.7878C36.8182 40.0663 36.6112 39.3567 36.416 38.6566C30.3696 39.2309 28.206 40.7617 26.5528 42.0527C26.5454 42.1083 26.5385 42.1635 26.5314 42.2192C26.5204 42.3062 26.5092 42.3944 26.4963 42.487C26.4046 43.18 26.2635 44.2479 26.2917 44.8175C26.4634 44.7155 26.6375 44.5066 26.9197 44.1222L26.923 44.1176C27.4048 43.4678 28.0634 42.5795 29.3913 42.5795C30.717 42.5795 31.3755 43.4677 31.8573 44.1176L31.8607 44.1222C32.3122 44.7344 32.4839 44.9006 32.8226 44.9006C33.1612 44.9006 33.3306 44.7345 33.7844 44.1222L33.7878 44.1176C34.2696 43.4678 34.9282 42.5795 36.2561 42.5795C37.5818 42.5795 38.2402 43.4677 38.722 44.1176L38.7254 44.1222C39.1794 44.7344 39.351 44.9006 39.6873 44.9006C40.026 44.9006 40.1953 44.7345 40.6492 44.1222C41.129 43.4719 41.7875 42.5795 43.1185 42.5795C44.4442 42.5795 45.1027 43.4677 45.5845 44.1176L45.5879 44.1222C46.0418 44.7369 46.2134 44.903 46.5521 44.903C46.8907 44.903 47.0601 44.7369 47.514 44.1246L47.5173 44.1201C47.9991 43.4702 48.6577 42.582 49.9857 42.582C51.3113 42.582 51.9698 43.4702 52.4516 44.12L52.455 44.1246C52.9065 44.7369 53.0782 44.903 53.4169 44.903C53.7555 44.903 53.9272 44.7368 54.3811 44.1222C54.8609 43.4719 55.5217 42.5795 56.8504 42.5795C58.1784 42.5795 58.8369 43.4677 59.3187 44.1176L59.3221 44.1222C59.776 44.7344 59.9477 44.9006 60.284 44.9006C60.3898 44.9006 60.4274 44.884 60.4274 44.884C60.4707 44.8334 60.5492 44.5804 60.599 44.42Z" fill="white"/>
<path d="M63.5623 43.9442L63.1224 43.7065L63.8802 44.3302L63.5623 43.9442ZM63.5976 43.8612L63.1354 43.6703L63.1285 43.6871L63.1228 43.7043L63.5976 43.8612ZM63.5628 43.9438L64.0108 44.1658L63.2449 43.5579L63.5628 43.9438ZM63.5063 44.0174L63.2272 43.6026L63.1396 43.6615L63.0834 43.7508L63.5063 44.0174ZM63.4734 44.0654L63.8796 44.3569L63.8797 44.3569L63.4734 44.0654ZM63.4569 44.0886L63.8487 44.3992L63.8587 44.3867L63.8677 44.3736L63.4569 44.0886ZM63.3958 44.1622L63.7509 44.5141L63.7602 44.5048L63.769 44.495L63.3958 44.1622ZM63.337 44.2191L63.0031 43.847L62.9922 43.8568L62.9818 43.8672L63.337 44.2191ZM63.2617 44.2832L63.5408 44.6981L63.5493 44.6924L63.5576 44.6863L63.2617 44.2832ZM63.2266 44.3063L62.9573 43.885L62.9572 43.885L63.2266 44.3063ZM63.1912 44.3283L63.4164 44.7747L63.4337 44.766L63.4501 44.756L63.1912 44.3283ZM63.1704 44.3393L62.9294 43.9012L62.9292 43.9013L63.1704 44.3393ZM63.156 44.3473L62.9117 43.9111L62.9116 43.9111L63.156 44.3473ZM63.1065 44.3734L62.8954 43.9202L62.8883 43.9235L62.8813 43.927L63.1065 44.3734ZM63.0773 44.3864L62.8912 43.9224L62.8911 43.9224L63.0773 44.3864ZM63.0444 44.3988L62.873 43.9291L62.873 43.9292L63.0444 44.3988ZM63.0172 44.409L63.194 44.8767L63.1981 44.8751L63.0172 44.409ZM62.9989 44.4167L63.1997 44.8746L63.1999 44.8745L62.9989 44.4167ZM62.9815 44.4239L63.1607 44.8907L63.161 44.8906L62.9815 44.4239ZM62.9607 44.4304L62.8513 43.9423L62.8383 43.9456L62.9607 44.4304ZM62.9465 44.4315V43.9315L62.9449 43.9315L62.9465 44.4315ZM62.9349 44.4327L62.8128 43.9479L62.8088 43.9489L62.9349 44.4327ZM62.5656 44.4802L62.3637 44.0228L62.2597 44.0687L62.1858 44.1551L62.5656 44.4802ZM62.394 44.9442L62.8715 45.0926L62.8716 45.0924L62.394 44.9442ZM62.3893 44.9596L61.9118 44.8112L61.9116 44.8119L62.3893 44.9596ZM57.8068 45.2489L57.405 45.5465L57.4051 45.5467L57.8068 45.2489ZM57.8034 45.2444L57.4004 45.5404L57.4016 45.5419L57.8034 45.2444ZM55.8796 45.2419L56.2812 45.5398L56.2813 45.5397L55.8796 45.2419ZM55.8763 45.2465L55.4747 44.9486L55.4746 44.9487L55.8763 45.2465ZM50.942 45.2465L51.3437 44.9487L51.3436 44.9486L50.942 45.2465ZM50.9386 45.2419L50.5362 45.5387L50.5371 45.5398L50.9386 45.2419ZM49.0149 45.2444L48.6126 44.9473L48.6125 44.9475L49.0149 45.2444ZM44.0772 45.2489L44.4789 44.9511L44.4789 44.9511L44.0772 45.2489ZM44.0738 45.2444L43.6714 45.5411L43.6722 45.5421L44.0738 45.2444ZM42.1501 45.2444L41.7484 44.9466L41.7477 44.9475L42.1501 45.2444ZM37.2148 45.2489L37.6165 44.9512L37.6164 44.9511L37.2148 45.2489ZM37.2114 45.2444L36.809 45.5411L36.8098 45.5422L37.2114 45.2444ZM35.2877 45.2468L34.8854 44.9498L34.8853 44.9499L35.2877 45.2468ZM30.3524 45.2514L30.7541 44.9536L30.754 44.9535L30.3524 45.2514ZM30.349 45.2468L29.9466 45.5436L29.9474 45.5446L30.349 45.2468ZM28.4252 45.2492L28.023 44.9522L28.0229 44.9524L28.4252 45.2492ZM24.8811 46.3053L25.2596 45.9786L25.2585 45.9773L24.8811 46.3053ZM24.6272 42.2281L25.1228 42.2939L25.1229 42.2931L24.6272 42.2281ZM24.6318 42.1929L24.136 42.1279L24.136 42.1279L24.6318 42.1929ZM24.8271 39.7861L25.3251 39.7418L25.2758 39.188L24.7303 39.2955L24.8271 39.7861ZM19.2841 46.2698L18.8369 46.0461L18.836 46.0479L19.2841 46.2698ZM18.3881 46.7896L18.4506 46.2935L18.4337 46.2914L18.4166 46.2904L18.3881 46.7896ZM17.5603 46.1678L18.0312 45.9998L18.0309 45.999L17.5603 46.1678ZM17.4168 37.2228L16.9972 36.951L16.997 36.9513L17.4168 37.2228ZM20.7939 35.3764L20.8265 35.8754L20.8268 35.8754L20.7939 35.3764ZM22.7952 34.6621L23.2584 34.8504L23.2584 34.8504L22.7952 34.6621ZM22.4871 33.8599L22.1101 34.1884L22.1106 34.1889L22.4871 33.8599ZM18.4374 32.8988L18.5691 33.3811L18.5697 33.381L18.4374 32.8988ZM12.2617 40.3534L11.7792 40.2223L11.7791 40.2228L12.2617 40.3534ZM12.9178 45.1806L13.2786 44.8344L13.2775 44.8333L12.9178 45.1806ZM12.899 46.5238L13.2485 46.8814L13.2496 46.8803L12.899 46.5238ZM11.5679 46.5049L11.9276 46.1575L11.9275 46.1574L11.5679 46.5049ZM10.4462 39.8528L10.9287 39.9838L10.9287 39.9837L10.4462 39.8528ZM17.9458 31.067L18.0773 31.5494L18.0774 31.5494L17.9458 31.067ZM23.9003 32.6072L23.5233 32.9356L23.5238 32.9362L23.9003 32.6072ZM24.5353 35.3887L24.9977 35.579L24.9978 35.5786L24.5353 35.3887ZM20.916 37.2731L20.8832 36.7741L20.8831 36.7741L20.916 37.2731ZM18.9947 38.2627L18.5752 37.9905L18.5749 37.991L18.9947 38.2627ZM18.7454 43.3913L18.2558 43.493L18.5112 44.7224L19.1708 43.654L18.7454 43.3913ZM25.1963 37.8663L25.2134 37.3666L25.212 37.3666L25.1963 37.8663ZM26.2475 38.3766L25.8636 38.6969L25.8648 38.6984L26.2475 38.3766ZM26.6872 39.5988L26.1894 39.6453L26.2675 40.4803L26.9649 40.0146L26.6872 39.5988ZM35.9298 36.7912L35.9805 37.2887L36.552 37.2304L36.4155 36.6724L35.9298 36.7912ZM41.1459 1.71L40.7908 1.35803L40.7764 1.37256L40.7632 1.38822L41.1459 1.71ZM41.1575 1.6999L41.4695 2.09061L41.4695 2.09061L41.1575 1.6999ZM41.1718 1.68626L40.8028 1.34881L40.7857 1.36759L40.7705 1.38801L41.1718 1.68626ZM41.2588 1.6032L41.5835 1.98344L41.5993 1.96993L41.614 1.95514L41.2588 1.6032ZM41.3176 1.55336L41.0385 1.1385L41.0385 1.13851L41.3176 1.55336ZM41.4056 1.50068L41.6507 1.93645L41.6513 1.93613L41.4056 1.50068ZM41.4258 1.48928L41.6715 1.92473L41.6822 1.91872L41.6925 1.91219L41.4258 1.48928ZM41.4846 1.45606L41.289 0.995784L41.28 0.999841L41.4846 1.45606ZM41.621 1.41096L41.5496 0.916081L41.5239 0.919792L41.4987 0.926155L41.621 1.41096ZM41.6539 1.402L41.8133 1.87593L41.8178 1.87435L41.6539 1.402ZM41.6539 1.40199L41.4945 0.928044L41.49 0.929631L41.6539 1.40199ZM41.6704 1.39673L41.5609 0.908845L41.5463 0.912129L41.5319 0.916284L41.6704 1.39673ZM41.8679 1.37537L41.885 0.875658L41.8764 0.875366H41.8679V1.37537ZM42.0066 1.38011L41.9896 1.87982L41.9981 1.88011H42.0066V1.38011ZM42.7239 1.71474L42.3405 2.03562L42.342 2.03742L42.7239 1.71474ZM47.9871 36.6228L47.501 36.5055L47.3608 37.0867L47.9576 37.122L47.9871 36.6228ZM63.6305 43.2773L64.116 43.1571L64.1133 43.1473L63.6305 43.2773ZM63.6352 43.3082L64.1295 43.2328L64.1261 43.2102L64.1206 43.1881L63.6352 43.3082ZM63.6493 43.4007L64.1444 43.3306L64.1436 43.3254L63.6493 43.4007ZM63.6591 43.5073L63.161 43.5526L63.1623 43.5636L63.6591 43.5073ZM63.6599 43.5147L63.1631 43.5709L63.1637 43.576L63.6599 43.5147ZM63.6608 43.5223L64.1589 43.4789L64.1588 43.4786L63.6608 43.5223ZM63.6604 43.5473L63.1617 43.511L63.1617 43.5111L63.6604 43.5473ZM63.6571 43.5778L63.161 43.5156L63.1609 43.5159L63.6571 43.5778ZM63.6564 43.5835L63.1602 43.5215L63.1586 43.5348L63.1576 43.5482L63.6564 43.5835ZM63.6561 43.5869L63.1574 43.5516L63.1574 43.5517L63.6561 43.5869ZM63.6446 43.6855L63.1555 43.5817L63.1532 43.5928L63.1513 43.6041L63.6446 43.6855ZM63.6406 43.7071L64.1308 43.8059L64.1308 43.8058L63.6406 43.7071ZM63.6368 43.7253L63.1489 43.6159L63.1489 43.616L63.6368 43.7253ZM63.6258 43.771L64.1055 43.912L64.1085 43.9017L64.1111 43.8913L63.6258 43.771ZM63.621 43.7875L63.1412 43.6464L63.1399 43.6513L63.621 43.7875ZM63.6177 43.7991L63.1366 43.6629L63.1364 43.6636L63.6177 43.7991ZM45.2398 39.5466V40.0466H45.6107L45.7183 39.6916L45.2398 39.5466ZM42.8081 39.5466H42.3081V40.0466H42.8081V39.5466ZM42.8081 5.22964L43.2404 4.97839L42.3081 3.3744V5.22964H42.8081ZM40.9267 39.5466V40.0466H41.4267V39.5466H40.9267ZM40.9267 5.47874H41.4267V3.57827L40.4915 5.23268L40.9267 5.47874ZM38.6338 39.5466L38.1553 39.6916L38.2629 40.0466H38.6338V39.5466ZM60.6038 44.4046L61.0814 44.5527L61.3126 43.8072L60.5387 43.9088L60.6038 44.4046ZM60.599 44.42L61.0765 44.5683L61.0766 44.5682L60.599 44.42ZM60.6031 44.4047L60.1255 44.2564L59.8941 45.0021L60.6682 44.9004L60.6031 44.4047ZM61.365 43.0543L61.6966 43.4285L62.0489 43.1163L61.7586 42.7458L61.365 43.0543ZM47.5018 38.5L47.5278 38.0007L47.1263 37.9798L47.0197 38.3674L47.5018 38.5ZM46.8269 40.7878L47.3036 40.9387L47.3036 40.9385L46.8269 40.7878ZM37.0439 40.7878L36.5668 40.9371L36.5672 40.9386L37.0439 40.7878ZM36.416 38.6566L36.8976 38.5223L36.7853 38.1193L36.3687 38.1589L36.416 38.6566ZM26.5528 42.0527L26.245 41.6586L26.0839 41.7845L26.0571 41.9872L26.5528 42.0527ZM26.5314 42.2192L27.0275 42.2819V42.2819L26.5314 42.2192ZM26.4963 42.487L26.0011 42.418L26.0007 42.4214L26.4963 42.487ZM26.2917 44.8175L25.7924 44.8423L25.8334 45.6715L26.5472 45.2474L26.2917 44.8175ZM26.9197 44.1222L26.5179 43.8245L26.5166 43.8263L26.9197 44.1222ZM26.923 44.1176L26.5214 43.8199L26.5213 43.82L26.923 44.1176ZM31.8573 44.1176L31.4556 44.4154L31.4557 44.4155L31.8573 44.1176ZM31.8607 44.1222L32.2631 43.8254L32.2623 43.8243L31.8607 44.1222ZM33.7844 44.1222L34.1861 44.4199L34.1862 44.4198L33.7844 44.1222ZM33.7878 44.1176L33.3861 43.8199L33.3861 43.82L33.7878 44.1176ZM38.722 44.1176L38.3204 44.4154L38.3204 44.4155L38.722 44.1176ZM38.7254 44.1222L39.1271 43.8244L39.127 43.8243L38.7254 44.1222ZM40.6492 44.1222L41.0509 44.4199L41.0515 44.419L40.6492 44.1222ZM45.5845 44.1176L45.9863 43.82L45.9861 43.8198L45.5845 44.1176ZM45.5879 44.1222L45.9901 43.8252L45.9897 43.8246L45.5879 44.1222ZM47.514 44.1246L47.1123 43.8268L47.1123 43.8269L47.514 44.1246ZM47.5173 44.1201L47.1157 43.8223L47.1157 43.8223L47.5173 44.1201ZM52.4516 44.12L52.0499 44.4178L52.05 44.4179L52.4516 44.12ZM52.455 44.1246L52.8574 43.8278L52.8566 43.8268L52.455 44.1246ZM54.3811 44.1222L54.7833 44.4192L54.7834 44.419L54.3811 44.1222ZM59.3187 44.1176L58.9171 44.4154L58.9171 44.4155L59.3187 44.1176ZM59.3221 44.1222L59.7238 43.8244L59.7237 43.8243L59.3221 44.1222ZM60.4274 44.884L60.6294 45.3414L60.7334 45.2954L60.8073 45.2091L60.4274 44.884ZM64.0022 44.182C64.0328 44.1253 64.0555 44.0689 64.0724 44.018L63.1228 43.7043C63.122 43.7069 63.1213 43.7086 63.121 43.7093C63.1207 43.7101 63.121 43.7091 63.1224 43.7065L64.0022 44.182ZM63.2449 43.5579L63.2445 43.5583L63.8802 44.3302L63.8806 44.3298L63.2449 43.5579ZM63.7854 44.4323C63.9333 44.3328 63.9958 44.196 64.0108 44.1658L63.1147 43.7219C63.1015 43.7486 63.1358 43.6641 63.2272 43.6026L63.7854 44.4323ZM63.8797 44.3569C63.8897 44.3428 63.9092 44.316 63.9293 44.2841L63.0834 43.7508C63.0828 43.7517 63.0815 43.7536 63.079 43.7572C63.0762 43.7613 63.073 43.7658 63.0671 43.7739L63.8797 44.3569ZM63.8677 44.3736C63.8706 44.3695 63.8738 44.3651 63.8796 44.3569L63.0672 43.7739C63.0621 43.781 63.0543 43.7919 63.0461 43.8036L63.8677 44.3736ZM63.769 44.495C63.7999 44.4602 63.8283 44.425 63.8487 44.3992L63.0651 43.778C63.048 43.7996 63.034 43.8167 63.0226 43.8294L63.769 44.495ZM63.6709 44.5913C63.7046 44.5611 63.7333 44.5319 63.7509 44.5141L63.0406 43.8102C63.0206 43.8304 63.0117 43.8392 63.0031 43.847L63.6709 44.5913ZM63.5576 44.6863C63.5988 44.656 63.6458 44.6178 63.6921 44.5711L62.9818 43.8672C62.9817 43.8673 62.9804 43.8686 62.9776 43.871C62.9747 43.8734 62.9709 43.8765 62.9659 43.8801L63.5576 44.6863ZM63.4958 44.7276C63.5112 44.7177 63.5265 44.7077 63.5408 44.6981L62.9827 43.8683C62.9753 43.8733 62.9666 43.879 62.9573 43.885L63.4958 44.7276ZM63.4501 44.756C63.4656 44.7466 63.4812 44.7369 63.4959 44.7275L62.9572 43.885C62.9483 43.8907 62.9398 43.896 62.9322 43.9006L63.4501 44.756ZM63.4113 44.7775C63.4154 44.7752 63.4167 44.7746 63.4164 44.7747L62.9659 43.8819C62.9516 43.8891 62.9391 43.8959 62.9294 43.9012L63.4113 44.7775ZM63.4003 44.7836C63.4053 44.7808 63.4086 44.779 63.4115 44.7774L62.9292 43.9013C62.9226 43.905 62.9163 43.9085 62.9117 43.9111L63.4003 44.7836ZM63.3177 44.8266C63.3548 44.8093 63.3865 44.7913 63.4004 44.7836L62.9116 43.9111C62.9031 43.9159 62.8993 43.918 62.8961 43.9197C62.8935 43.9211 62.8936 43.921 62.8954 43.9202L63.3177 44.8266ZM63.2634 44.8505C63.2821 44.843 63.3058 44.8329 63.3318 44.8198L62.8813 43.927C62.8883 43.9235 62.8924 43.9219 62.8912 43.9224L63.2634 44.8505ZM63.2158 44.8685C63.2256 44.865 63.2442 44.8582 63.2636 44.8505L62.8911 43.9224C62.8889 43.9233 62.8854 43.9246 62.873 43.9291L63.2158 44.8685ZM63.1981 44.8751C63.2017 44.8737 63.2061 44.8721 63.2158 44.8685L62.873 43.9292C62.8647 43.9322 62.8508 43.9372 62.8363 43.9429L63.1981 44.8751ZM63.1999 44.8745C63.2034 44.8729 63.2034 44.8729 63.2028 44.8732C63.202 44.8735 63.1987 44.8749 63.194 44.8767L62.8403 43.9413C62.8199 43.9491 62.8021 43.957 62.7978 43.9588L63.1999 44.8745ZM63.161 44.8906C63.1794 44.8835 63.1955 44.8764 63.1997 44.8746L62.7981 43.9587C62.7948 43.9602 62.7946 43.9602 62.7949 43.9601C62.7955 43.9599 62.7981 43.9588 62.802 43.9573L63.161 44.8906ZM63.0701 44.9183C63.1075 44.9099 63.1383 44.8993 63.1607 44.8907L62.8023 43.9572C62.8116 43.9536 62.8287 43.9475 62.8514 43.9425L63.0701 44.9183ZM62.9478 44.9315C62.9484 44.9315 63.0107 44.9334 63.0832 44.9151L62.8383 43.9456C62.9013 43.9297 62.9553 43.9315 62.9478 43.9315V44.9315ZM62.9465 44.9315H62.9478V43.9315H62.9465V44.9315ZM63.0569 44.9176C62.9997 44.932 62.9533 44.9315 62.948 44.9315L62.9449 43.9315C62.9323 43.9316 62.8784 43.9313 62.8128 43.9479L63.0569 44.9176ZM62.7091 44.9636C62.8379 44.9636 62.9561 44.9439 63.0609 44.9166L62.8088 43.9489C62.7678 43.9596 62.7355 43.9636 62.7091 43.9636V44.9636ZM62.5656 44.4802C62.7676 44.9376 62.7673 44.9377 62.7671 44.9378C62.767 44.9378 62.7668 44.9379 62.7667 44.938C62.7663 44.9381 62.766 44.9383 62.7657 44.9384C62.7651 44.9387 62.7645 44.9389 62.7639 44.9392C62.7627 44.9397 62.7615 44.9403 62.7603 44.9408C62.7579 44.9418 62.7555 44.9427 62.7532 44.9437C62.7486 44.9455 62.7442 44.9472 62.74 44.9488C62.7315 44.9519 62.7239 44.9544 62.7171 44.9564C62.7036 44.9605 62.6936 44.9626 62.6879 44.9637C62.6768 44.9657 62.6821 44.9636 62.7091 44.9636V43.9636C62.6303 43.9636 62.5639 43.9697 62.5074 43.9801C62.4791 43.9853 62.4531 43.9916 62.4292 43.9988C62.4173 44.0024 62.4058 44.0062 62.3949 44.0102C62.3895 44.0122 62.3841 44.0143 62.3789 44.0164C62.3763 44.0174 62.3738 44.0185 62.3712 44.0195C62.3699 44.0201 62.3687 44.0206 62.3674 44.0212C62.3668 44.0214 62.3662 44.0217 62.3656 44.022C62.3652 44.0221 62.3649 44.0222 62.3646 44.0224C62.3645 44.0225 62.3642 44.0226 62.3642 44.0226C62.3639 44.0227 62.3637 44.0228 62.5656 44.4802ZM62.8716 45.0924C62.897 45.0105 62.9265 44.9157 62.9544 44.8357C62.9684 44.7954 62.9796 44.766 62.9874 44.7477C62.9914 44.7385 62.9922 44.7375 62.9898 44.7419C62.9886 44.7443 62.985 44.7508 62.9793 44.7599C62.974 44.7682 62.9629 44.785 62.9455 44.8053L62.1858 44.1551C62.1184 44.2338 62.0795 44.3275 62.0677 44.3552C62.0471 44.4036 62.0274 44.457 62.0102 44.5063C61.9755 44.6056 61.9409 44.7175 61.9165 44.796L62.8716 45.0924ZM62.8667 45.1079L62.8715 45.0926L61.9165 44.7959L61.9118 44.8112L62.8667 45.1079ZM60.2727 47.287C61.205 47.287 61.8279 46.9053 62.2306 46.412C62.6123 45.9446 62.7769 45.3985 62.8669 45.1073L61.9116 44.8119C61.8181 45.1141 61.6994 45.4816 61.4561 45.7795C61.2339 46.0517 60.8902 46.287 60.2727 46.287V47.287ZM57.4051 45.5467C57.8791 46.186 58.6727 47.287 60.2727 47.287V46.287C59.2214 46.287 58.6981 45.6116 58.2084 44.9512L57.4051 45.5467ZM57.4016 45.5419L57.405 45.5465L58.2086 44.9514L58.2052 44.9468L57.4016 45.5419ZM56.8415 44.9635C56.884 44.9635 56.8991 44.9686 56.9036 44.9702C56.9079 44.9717 56.9245 44.9778 56.9596 45.0072C57.047 45.0802 57.1686 45.2248 57.4004 45.5404L58.2063 44.9483C57.9866 44.6492 57.7966 44.4034 57.6007 44.2397C57.3657 44.0434 57.1236 43.9635 56.8415 43.9635V44.9635ZM56.2813 45.5397C56.5148 45.2247 56.6364 45.0803 56.7242 45.0069C56.7594 44.9776 56.7759 44.9715 56.7799 44.9701C56.7841 44.9686 56.799 44.9635 56.8415 44.9635V43.9635C56.5591 43.9635 56.3177 44.0436 56.0833 44.2393C55.8884 44.4021 55.6983 44.6469 55.478 44.9442L56.2813 45.5397ZM56.2779 45.5443L56.2812 45.5398L55.478 44.9441L55.4747 44.9486L56.2779 45.5443ZM53.408 47.2846C55.0101 47.2846 55.8038 46.1838 56.2779 45.5442L55.4746 44.9487C54.9852 45.6089 54.4617 46.2846 53.408 46.2846V47.2846ZM50.5404 45.5443C51.0143 46.1835 51.8079 47.2846 53.408 47.2846V46.2846C52.3567 46.2846 51.8333 45.6092 51.3437 44.9487L50.5404 45.5443ZM50.5371 45.5398L50.5405 45.5444L51.3436 44.9486L51.3402 44.944L50.5371 45.5398ZM49.9767 44.9635C50.0192 44.9635 50.0344 44.9686 50.039 44.9702C50.0435 44.9718 50.0601 44.978 50.0953 45.0073C50.1828 45.0802 50.3044 45.2243 50.5362 45.5387L51.341 44.9451C51.1213 44.6473 50.9312 44.4022 50.7354 44.239C50.5006 44.0434 50.2587 43.9635 49.9767 43.9635V44.9635ZM49.4171 45.5414C49.6501 45.2258 49.7724 45.0807 49.8605 45.0072C49.8959 44.9776 49.9125 44.9714 49.9166 44.9699C49.9207 44.9685 49.9352 44.9635 49.9767 44.9635V43.9635C49.6949 43.9635 49.4536 44.044 49.2193 44.2397C49.024 44.4029 48.8335 44.6482 48.6126 44.9473L49.4171 45.5414ZM46.5455 47.287C48.149 47.287 48.9449 46.1814 49.4172 45.5412L48.6125 44.9475C48.1253 45.6078 47.5994 46.287 46.5455 46.287V47.287ZM43.6756 45.5467C44.1497 46.1863 44.9433 47.287 46.5455 47.287V46.287C45.4917 46.287 44.9683 45.6113 44.4789 44.9511L43.6756 45.5467ZM43.6722 45.5421L43.6756 45.5467L44.4789 44.9511L44.4755 44.9466L43.6722 45.5421ZM43.112 44.966C43.1545 44.966 43.1696 44.971 43.1743 44.9726C43.1787 44.9742 43.1954 44.9804 43.2305 45.0097C43.3181 45.0826 43.4396 45.2267 43.6714 45.5411L44.4762 44.9476C44.2565 44.6497 44.0665 44.4046 43.8706 44.2414C43.6358 44.0458 43.394 43.966 43.112 43.966V44.966ZM42.5518 45.5421C42.7853 45.2271 42.9069 45.0827 42.9947 45.0094C43.0299 44.98 43.0463 44.9739 43.0504 44.9725C43.0546 44.971 43.0695 44.966 43.112 44.966V43.966C42.8296 43.966 42.5882 44.046 42.3538 44.2417C42.1588 44.4045 41.9688 44.6493 41.7484 44.9466L42.5518 45.5421ZM39.6808 47.287C41.2868 47.287 42.0803 46.1811 42.5524 45.5412L41.7477 44.9475C41.2603 45.6081 40.7369 46.287 39.6808 46.287V47.287ZM36.8132 45.5467C37.2871 46.186 38.0807 47.287 39.6808 47.287V46.287C38.6295 46.287 38.1061 45.6116 37.6165 44.9512L36.8132 45.5467ZM36.8098 45.5422L36.8132 45.5468L37.6164 44.9511L37.613 44.9465L36.8098 45.5422ZM36.2495 44.966C36.292 44.966 36.3072 44.971 36.3118 44.9726C36.3163 44.9742 36.333 44.9804 36.3681 45.0097C36.4556 45.0826 36.5772 45.2267 36.809 45.5411L37.6138 44.9476C37.3941 44.6497 37.2041 44.4046 37.0082 44.2414C36.7734 44.0458 36.5315 43.966 36.2495 43.966V44.966ZM35.6899 45.5438C35.9229 45.2282 36.0452 45.0831 36.1333 45.0096C36.1687 44.98 36.1854 44.9738 36.1894 44.9724C36.1936 44.9709 36.208 44.966 36.2495 44.966V43.966C35.9677 43.966 35.7264 44.0465 35.4921 44.2422C35.2968 44.4054 35.1063 44.6507 34.8854 44.9498L35.6899 45.5438ZM32.8183 47.2894C34.4219 47.2894 35.2177 46.1838 35.69 45.5436L34.8853 44.9499C34.3981 45.6103 33.8723 46.2894 32.8183 46.2894V47.2894ZM29.9508 45.5491C30.4247 46.1884 31.2183 47.2894 32.8183 47.2894V46.2894C31.7671 46.2894 31.2437 45.6141 30.7541 44.9536L29.9508 45.5491ZM29.9474 45.5446L29.9508 45.5492L30.754 44.9535L30.7506 44.9489L29.9474 45.5446ZM29.3871 44.9684C29.4296 44.9684 29.4448 44.9734 29.4494 44.9751C29.4538 44.9766 29.4705 44.9828 29.5057 45.0121C29.5932 45.0851 29.7148 45.2292 29.9466 45.5436L30.7514 44.95C30.5317 44.6521 30.3416 44.407 30.1458 44.2439C29.911 44.0482 29.6691 43.9684 29.3871 43.9684V44.9684ZM28.8275 45.5462C29.0605 45.2307 29.1828 45.0855 29.2708 45.012C29.3063 44.9824 29.3229 44.9763 29.327 44.9748C29.3311 44.9733 29.3456 44.9684 29.3871 44.9684V43.9684C29.1052 43.9684 28.8639 44.0489 28.6297 44.2446C28.4343 44.4078 28.2439 44.6531 28.023 44.9522L28.8275 45.5462ZM25.9559 47.2918C27.5594 47.2918 28.3552 46.1863 28.8276 45.5461L28.0229 44.9524C27.5357 45.6127 27.0098 46.2918 25.9559 46.2918V47.2918ZM24.5027 46.6321C24.8702 47.0578 25.3928 47.2918 25.9559 47.2918V46.2918C25.677 46.2918 25.433 46.1794 25.2596 45.9786L24.5027 46.6321ZM24.1315 42.1623C23.9974 43.1717 23.8905 44.0423 23.9068 44.7587C23.9232 45.4791 24.0646 46.1282 24.5038 46.6334L25.2585 45.9773C25.0416 45.7278 24.9207 45.3565 24.9066 44.7359C24.8923 44.1114 24.9864 43.3207 25.1228 42.2939L24.1315 42.1623ZM24.136 42.1279L24.1314 42.1631L25.1229 42.2931L25.1275 42.2578L24.136 42.1279ZM24.329 39.8303C24.3487 40.052 24.3292 40.4272 24.2862 40.8699C24.2443 41.3014 24.1845 41.7582 24.136 42.1279L25.1275 42.2579C25.1757 41.8908 25.2378 41.4175 25.2815 40.9664C25.3242 40.5265 25.354 40.0667 25.3251 39.7418L24.329 39.8303ZM19.7312 46.4936C20.3642 45.2288 21.2923 43.7249 22.2721 42.5011C22.7621 41.8891 23.2562 41.3583 23.724 40.9641C24.2007 40.5624 24.6076 40.3389 24.9238 40.2766L24.7303 39.2955C24.1681 39.4063 23.6047 39.7569 23.0795 40.1995C22.5454 40.6496 22.006 41.2335 21.4915 41.8761C20.4624 43.1616 19.4974 44.7264 18.8369 46.0461L19.7312 46.4936ZM18.4445 47.292C18.9862 47.292 19.4873 46.9859 19.7321 46.4918L18.836 46.0479C18.761 46.1993 18.6084 46.292 18.4445 46.292V47.292ZM18.3255 47.2857C18.3806 47.2926 18.4308 47.292 18.4445 47.292V46.292C18.4395 46.292 18.4368 46.292 18.4344 46.2919C18.4322 46.2919 18.4316 46.2919 18.4321 46.2919C18.4328 46.2919 18.4399 46.2922 18.4506 46.2935L18.3255 47.2857ZM17.0893 46.3358C17.2836 46.8803 17.7842 47.256 18.3596 47.2888L18.4166 46.2904C18.2441 46.2806 18.091 46.1673 18.0312 45.9998L17.0893 46.3358ZM16.997 36.9513C15.9329 38.5968 15.9395 40.8398 16.1917 42.6522C16.4475 44.4907 16.9764 46.0209 17.0896 46.3366L18.0309 45.999C17.9278 45.7114 17.4243 44.2548 17.1821 42.5144C16.9363 40.748 16.9793 38.8202 17.8367 37.4943L16.997 36.9513ZM20.7613 34.8775C19.1357 34.9836 17.8146 35.6894 16.9972 36.951L17.8364 37.4947C18.4583 36.5349 19.47 35.9639 20.8265 35.8754L20.7613 34.8775ZM22.332 34.4738C22.3526 34.423 22.3335 34.5116 22.0481 34.6289C21.7883 34.7356 21.373 34.8372 20.761 34.8775L20.8268 35.8754C21.5106 35.8303 22.0395 35.7135 22.4281 35.5538C22.7912 35.4047 23.1249 35.1788 23.2584 34.8504L22.332 34.4738ZM22.1106 34.1889C22.2128 34.3059 22.2733 34.4104 22.3012 34.4834C22.315 34.5193 22.3172 34.5381 22.3174 34.5405C22.3176 34.5432 22.3148 34.5162 22.332 34.4738L23.2584 34.8504C23.3651 34.5879 23.3085 34.3176 23.2351 34.1258C23.156 33.9193 23.0248 33.7154 22.8636 33.5309L22.1106 34.1889ZM18.5697 33.381C20.1783 32.9398 21.5429 33.5372 22.1101 34.1884L22.8641 33.5315C22.0297 32.5736 20.2618 31.88 18.3052 32.4166L18.5697 33.381ZM12.7442 40.4845C13.1905 38.8419 14.0804 37.2098 15.1578 35.9093C16.2431 34.5993 17.4724 33.6803 18.5691 33.3811L18.3058 32.4164C16.9307 32.7916 15.539 33.8817 14.3877 35.2714C13.2286 36.6705 12.2666 38.4285 11.7792 40.2223L12.7442 40.4845ZM13.2775 44.8333C12.724 44.26 12.5006 43.491 12.4658 42.6797C12.4309 41.8682 12.5878 41.0626 12.7444 40.484L11.7791 40.2228C11.6087 40.8523 11.4257 41.7685 11.4667 42.7226C11.5077 43.677 11.7758 44.7176 12.5581 45.5279L13.2775 44.8333ZM13.2496 46.8803C13.8163 46.3229 13.8303 45.4093 13.2786 44.8344L12.5571 45.5268C12.7296 45.7066 12.7249 45.9938 12.5484 46.1674L13.2496 46.8803ZM11.2083 46.8523C11.766 47.4296 12.6768 47.4402 13.2485 46.8814L12.5495 46.1663C12.3733 46.3385 12.0989 46.3349 11.9276 46.1575L11.2083 46.8523ZM9.96364 39.7217C9.18552 42.587 9.56975 45.1566 11.2084 46.8523L11.9275 46.1574C10.6171 44.8014 10.2064 42.6435 10.9287 39.9838L9.96364 39.7217ZM17.8143 30.5846C15.9466 31.0936 14.2324 32.4809 12.8752 34.1564C11.5134 35.8376 10.4687 37.8603 9.96362 39.7218L10.9287 39.9837C11.3947 38.2664 12.3713 36.3672 13.6523 34.7858C14.9379 33.1987 16.488 31.9825 18.0773 31.5494L17.8143 30.5846ZM24.2774 32.2789C23.0424 30.861 20.5759 29.8312 17.8142 30.5846L18.0774 31.5494C20.4659 30.8978 22.5381 31.8046 23.5233 32.9356L24.2774 32.2789ZM24.9978 35.5786C25.4513 34.4744 25.1381 33.2643 24.2769 32.2783L23.5238 32.9362C24.2006 33.7111 24.3483 34.5279 24.0728 35.1987L24.9978 35.5786ZM20.9488 37.772C22.2171 37.6886 23.1289 37.3937 23.7798 36.9835C24.4362 36.5698 24.802 36.0543 24.9977 35.579L24.0729 35.1984C23.9511 35.4944 23.7161 35.8416 23.2466 36.1375C22.7716 36.4369 22.0325 36.6985 20.8832 36.7741L20.9488 37.772ZM19.4141 38.5349C19.7001 38.0942 20.163 37.8238 20.9489 37.772L20.8831 36.7741C19.8676 36.8411 19.0747 37.2209 18.5752 37.9905L19.4141 38.5349ZM19.2349 43.2896C19.0592 42.4436 18.9301 41.5055 18.9379 40.641C18.9458 39.7645 19.0944 39.0289 19.4144 38.5344L18.5749 37.991C18.1024 38.7211 17.9465 39.6835 17.9379 40.632C17.9293 41.5926 18.0717 42.6064 18.2558 43.493L19.2349 43.2896ZM25.212 37.3666C23.7158 37.3195 22.3265 38.2571 21.1868 39.3863C20.03 40.5325 19.0339 41.9723 18.3199 43.1286L19.1708 43.654C19.868 42.5248 20.8157 41.1617 21.8906 40.0967C22.9827 39.0146 24.1134 38.3325 25.1805 38.3661L25.212 37.3666ZM26.6314 38.0562C26.2751 37.6293 25.7669 37.3857 25.2134 37.3666L25.1791 38.366C25.4534 38.3755 25.693 38.4926 25.8636 38.6969L26.6314 38.0562ZM27.1851 39.5522C27.1328 38.9934 26.9834 38.4749 26.6302 38.0548L25.8648 38.6984C26.0384 38.9048 26.1476 39.1979 26.1894 39.6453L27.1851 39.5522ZM35.8791 36.2938C30.8274 36.8084 28.2199 37.9742 26.4096 39.183L26.9649 40.0146C28.6163 38.9119 31.0609 37.7898 35.9805 37.2887L35.8791 36.2938ZM40.7632 1.38822C40.243 2.00695 29.9882 14.6049 35.4441 36.91L36.4155 36.6724C31.0625 14.788 41.127 2.50948 41.5286 2.03177L40.7632 1.38822ZM40.8455 1.30919C40.8436 1.31076 40.8179 1.33066 40.7908 1.35803L41.5011 2.06196C41.4907 2.07239 41.4818 2.08027 41.476 2.08524C41.471 2.08951 41.4668 2.09278 41.4695 2.09061L40.8455 1.30919ZM40.7705 1.38801C40.792 1.35912 40.8129 1.33815 40.8274 1.32487C40.8396 1.3137 40.8504 1.30526 40.8455 1.30919L41.4695 2.09061C41.4699 2.09035 41.4858 2.07786 41.5028 2.0623C41.5221 2.04464 41.5475 2.01894 41.5731 1.98452L40.7705 1.38801ZM40.9341 1.22296C40.8934 1.25773 40.8491 1.29828 40.8028 1.34881L41.5407 2.02372C41.551 2.01254 41.5631 2.00088 41.5835 1.98344L40.9341 1.22296ZM41.0385 1.13851C40.9813 1.17698 40.937 1.21764 40.9036 1.25126L41.614 1.95514C41.6183 1.95078 41.6115 1.95822 41.5967 1.96821L41.0385 1.13851ZM41.1604 1.06491C41.1327 1.08051 41.0866 1.10617 41.0385 1.1385L41.5967 1.96822C41.6064 1.96167 41.6181 1.95481 41.6507 1.93645L41.1604 1.06491ZM41.18 1.05383L41.1599 1.06523L41.6513 1.93613L41.6715 1.92473L41.18 1.05383ZM41.28 0.999841C41.2215 1.02605 41.1738 1.05709 41.159 1.06638L41.6925 1.91219C41.6975 1.90902 41.7003 1.90728 41.7028 1.90575C41.705 1.90436 41.7057 1.90396 41.7055 1.9041C41.705 1.90439 41.699 1.90788 41.6892 1.91227L41.28 0.999841ZM41.4987 0.926155C41.4319 0.942985 41.362 0.964861 41.289 0.995874L41.6801 1.91624C41.6965 1.90928 41.7159 1.90268 41.7433 1.89577L41.4987 0.926155ZM41.4945 0.928097C41.4871 0.93056 41.4921 0.928813 41.4989 0.926846C41.5067 0.924591 41.5249 0.919643 41.5496 0.916081L41.6923 1.90585C41.7563 1.89663 41.8111 1.87666 41.8133 1.8759L41.4945 0.928097ZM41.49 0.929631L41.4899 0.929645L41.8178 1.87435L41.8179 1.87434L41.49 0.929631ZM41.5319 0.916284C41.5141 0.92141 41.4982 0.926842 41.4946 0.928066L41.8133 1.87591C41.8165 1.87484 41.8166 1.87479 41.8164 1.87488C41.8158 1.87505 41.813 1.87596 41.8088 1.87717L41.5319 0.916284ZM41.8679 0.875366C41.7647 0.875366 41.662 0.886171 41.5609 0.908845L41.7798 1.88461C41.8057 1.8788 41.8347 1.87537 41.8679 1.87537V0.875366ZM42.0237 0.880405L41.885 0.875658L41.8508 1.87507L41.9896 1.87982L42.0237 0.880405ZM43.1074 1.39386C42.8331 1.06611 42.4314 0.880112 42.0066 0.880112V1.88011C42.1369 1.88011 42.2573 1.93618 42.3405 2.03562L43.1074 1.39386ZM48.4731 36.7402C53.8316 14.5427 43.6269 2.00877 43.1059 1.39206L42.342 2.03742C42.7428 2.51187 52.7583 14.7272 47.501 36.5055L48.4731 36.7402ZM64.1133 43.1473C64.0531 42.9237 63.5494 41.362 61.2773 39.7579C59.0118 38.1583 55.0188 36.5379 48.0166 36.1237L47.9576 37.122C54.8349 37.5288 58.6307 39.1134 60.7006 40.5748C62.7638 42.0315 63.1421 43.3865 63.1477 43.4074L64.1133 43.1473ZM64.1206 43.1881C64.1255 43.2082 64.1279 43.2238 64.1289 43.2306C64.1294 43.2344 64.1297 43.2372 64.1299 43.2382C64.13 43.2391 64.13 43.2397 64.1299 43.238C64.1297 43.237 64.1294 43.2338 64.129 43.2302C64.1285 43.2265 64.1279 43.2211 64.127 43.2147C64.1253 43.2027 64.122 43.182 64.1159 43.1572L63.1452 43.3975C63.1402 43.3774 63.1378 43.3617 63.1368 43.3549C63.1363 43.3511 63.136 43.3484 63.1358 43.3473C63.1357 43.3464 63.1357 43.3459 63.1359 43.3475C63.136 43.3485 63.1363 43.3518 63.1367 43.3553C63.1372 43.359 63.1378 43.3644 63.1388 43.3708C63.1404 43.3828 63.1437 43.4035 63.1499 43.4283L64.1206 43.1881ZM64.1436 43.3254L64.1295 43.2328L63.1409 43.3835L63.155 43.4761L64.1436 43.3254ZM64.1587 43.5004C64.1587 43.426 64.1482 43.3577 64.1444 43.3307L63.1543 43.4708C63.1555 43.4795 63.1564 43.4856 63.1571 43.4914C63.1579 43.497 63.1583 43.5007 63.1586 43.5034C63.1592 43.5089 63.1587 43.5069 63.1587 43.5004H64.1587ZM64.157 43.4621C64.1577 43.4697 64.1587 43.4832 64.1587 43.5004H63.1587C63.1587 43.5222 63.16 43.5403 63.1611 43.5526L64.157 43.4621ZM64.1567 43.4584L64.1559 43.4511L63.1623 43.5636L63.1631 43.5709L64.1567 43.4584ZM64.1588 43.4786C64.1577 43.4657 64.1563 43.4543 64.1561 43.4533L63.1637 43.576C63.1639 43.5777 63.1638 43.5768 63.1636 43.5755C63.1634 43.5739 63.1631 43.5706 63.1627 43.5661L64.1588 43.4786ZM64.1611 43.5289C64.1611 43.5079 64.1599 43.4904 64.1589 43.4789L63.1627 43.5658C63.162 43.5586 63.1611 43.5455 63.1611 43.5289H64.1611ZM64.1591 43.5835C64.1602 43.5676 64.1611 43.5492 64.1611 43.5289H63.1611C63.1611 43.5212 63.1614 43.515 63.1617 43.511L64.1591 43.5835ZM64.1532 43.64C64.1542 43.6317 64.1572 43.6088 64.1591 43.5835L63.1617 43.5111C63.1619 43.5077 63.1622 43.5059 63.1621 43.5067C63.1619 43.5079 63.1617 43.5097 63.161 43.5156L64.1532 43.64ZM64.1525 43.6454L64.1532 43.6397L63.1609 43.5159L63.1602 43.5215L64.1525 43.6454ZM64.1549 43.6222L64.1551 43.6188L63.1576 43.5482L63.1574 43.5516L64.1549 43.6222ZM64.1337 43.7894C64.149 43.7174 64.1531 43.6478 64.1549 43.6221L63.1574 43.5517C63.1568 43.56 63.1564 43.5661 63.1559 43.5719C63.1555 43.5774 63.1551 43.5813 63.1548 43.5841C63.1542 43.5903 63.1541 43.5884 63.1555 43.5817L64.1337 43.7894ZM64.1308 43.8058C64.1332 43.7939 64.1356 43.7809 64.1379 43.767L63.1513 43.6041C63.1512 43.6045 63.151 43.6059 63.1505 43.6085L64.1308 43.8058ZM64.1246 43.8347C64.1267 43.8257 64.1287 43.8161 64.1308 43.8059L63.1505 43.6084C63.1501 43.6103 63.1496 43.6128 63.1489 43.6159L64.1246 43.8347ZM64.1111 43.8913C64.1147 43.8769 64.1198 43.8563 64.1247 43.8347L63.1489 43.616C63.1469 43.6248 63.1445 43.6346 63.1405 43.6507L64.1111 43.8913ZM64.1007 43.9285L64.1055 43.912L63.1461 43.6299L63.1413 43.6464L64.1007 43.9285ZM64.0988 43.9353L64.1021 43.9237L63.1399 43.6513L63.1366 43.6629L64.0988 43.9353ZM64.0597 44.052C64.081 44.0004 64.0944 43.9508 64.0989 43.9346L63.1364 43.6636C63.1348 43.6692 63.1338 43.6727 63.1329 43.676C63.132 43.6791 63.1315 43.6807 63.1313 43.6813C63.1308 43.6829 63.1321 43.6783 63.1354 43.6703L64.0597 44.052ZM45.2398 39.0466H42.8081V40.0466H45.2398V39.0466ZM42.3758 5.4809C45.0722 10.1199 50.0673 21.8904 44.7613 39.4016L45.7183 39.6916C51.1225 21.8567 46.0424 9.79917 43.2404 4.97839L42.3758 5.4809ZM43.3081 39.5466V5.22964H42.3081V39.5466H43.3081ZM41.4267 39.5466V5.47874H40.4267V39.5466H41.4267ZM38.6338 40.0466H40.9267V39.0466H38.6338V40.0466ZM40.4915 5.23268C37.6698 10.2239 32.8557 22.2035 38.1553 39.6916L39.1123 39.4016C33.909 22.2313 38.6429 10.5346 41.362 5.7248L40.4915 5.23268ZM60.1263 44.2564L60.1215 44.2719L61.0766 44.5682L61.0814 44.5527L60.1263 44.2564ZM60.6682 44.9004L60.6689 44.9003L60.5387 43.9088L60.538 43.9089L60.6682 44.9004ZM61.0334 42.6801C60.454 43.1935 60.2342 43.9063 60.1255 44.2564L61.0806 44.5529C61.193 44.191 61.3494 43.7362 61.6966 43.4285L61.0334 42.6801ZM47.4758 38.9993C56.9292 39.491 60.051 42.1882 60.9715 43.3627L61.7586 42.7458C60.5959 41.2623 57.1471 38.501 47.5278 38.0007L47.4758 38.9993ZM47.3036 40.9385C47.5502 40.1583 47.7754 39.3905 47.9839 38.6326L47.0197 38.3674C46.8143 39.1142 46.5926 39.8699 46.3501 40.6371L47.3036 40.9385ZM45.9308 41.9499C46.5618 41.9499 47.1142 41.5368 47.3036 40.9387L46.3502 40.6369C46.2901 40.8266 46.1183 40.9499 45.9308 40.9499V41.9499ZM37.94 41.9499H45.9308V40.9499H37.94V41.9499ZM36.5672 40.9386C36.7565 41.5369 37.309 41.9499 37.94 41.9499V40.9499C37.7525 40.9499 37.5806 40.8266 37.5207 40.637L36.5672 40.9386ZM35.9344 38.7909C36.1306 39.4948 36.3391 40.2096 36.5668 40.9371L37.5211 40.6385C37.2972 39.923 37.0918 39.2186 36.8976 38.5223L35.9344 38.7909ZM26.8605 42.4468C27.6731 41.8122 28.5853 41.139 30.0265 40.5486C31.4733 39.9559 33.4754 39.4382 36.4633 39.1544L36.3687 38.1589C33.3102 38.4494 31.2073 38.9842 29.6474 39.6232C28.0819 40.2645 27.0857 41.0021 26.245 41.6586L26.8605 42.4468ZM27.0275 42.2819C27.0345 42.226 27.0413 42.1722 27.0485 42.1182L26.0571 41.9872C26.0495 42.0444 26.0424 42.101 26.0354 42.1564L27.0275 42.2819ZM26.9916 42.556C27.005 42.4598 27.0165 42.3686 27.0275 42.2819L26.0354 42.1564C26.0243 42.2439 26.0135 42.329 26.0011 42.418L26.9916 42.556ZM26.7911 44.7928C26.7657 44.2803 26.8972 43.269 26.992 42.5526L26.0007 42.4214C25.912 43.091 25.7613 44.2156 25.7924 44.8423L26.7911 44.7928ZM26.5166 43.8263C26.219 44.2318 26.1039 44.3475 26.0363 44.3877L26.5472 45.2474C26.823 45.0835 27.0559 44.7815 27.3227 44.418L26.5166 43.8263ZM26.5213 43.82L26.5179 43.8245L27.3214 44.4198L27.3248 44.4153L26.5213 43.82ZM29.3913 42.0795C27.7892 42.0795 26.9955 43.1803 26.5214 43.8199L27.3247 44.4154C27.8141 43.7552 28.3376 43.0795 29.3913 43.0795V42.0795ZM32.2589 43.8198C31.785 43.1806 30.9914 42.0795 29.3913 42.0795V43.0795C30.4426 43.0795 30.966 43.7549 31.4556 44.4154L32.2589 43.8198ZM32.2623 43.8243L32.2589 43.8197L31.4557 44.4155L31.4591 44.42L32.2623 43.8243ZM32.8226 44.4006C32.7801 44.4006 32.7649 44.3955 32.7603 44.3939C32.7558 44.3923 32.7392 44.3861 32.704 44.3568C32.6165 44.2839 32.4949 44.1398 32.2631 43.8254L31.4583 44.419C31.678 44.7168 31.868 44.9619 32.0639 45.1251C32.2987 45.3207 32.5406 45.4006 32.8226 45.4006V44.4006ZM33.3828 43.8244C33.1492 44.1394 33.0277 44.2838 32.9398 44.3572C32.9047 44.3865 32.8882 44.3926 32.8841 44.394C32.8799 44.3955 32.8651 44.4006 32.8226 44.4006V45.4006C33.1049 45.4006 33.3463 45.3205 33.5807 45.1248C33.7757 44.962 33.9657 44.7172 34.1861 44.4199L33.3828 43.8244ZM33.3861 43.82L33.3827 43.8245L34.1862 44.4198L34.1895 44.4153L33.3861 43.82ZM36.2561 42.0795C34.6539 42.0795 33.8603 43.1803 33.3861 43.8199L34.1894 44.4154C34.6789 43.7552 35.2024 43.0795 36.2561 43.0795V42.0795ZM39.1237 43.8198C38.6498 43.1806 37.8561 42.0795 36.2561 42.0795V43.0795C37.3074 43.0795 37.8307 43.7549 38.3204 44.4154L39.1237 43.8198ZM39.127 43.8243L39.1236 43.8197L38.3204 44.4155L38.3238 44.42L39.127 43.8243ZM39.6873 44.4006C39.6458 44.4006 39.6312 44.3956 39.627 44.3941C39.6228 44.3926 39.606 44.3864 39.5706 44.3568C39.4825 44.2835 39.3602 44.1388 39.1271 43.8244L38.3238 44.42C38.5446 44.7178 38.7351 44.9624 38.9304 45.1251C39.1645 45.3202 39.4056 45.4006 39.6873 45.4006V44.4006ZM40.2475 43.8244C40.014 44.1394 39.8924 44.2838 39.8046 44.3572C39.7694 44.3865 39.753 44.3926 39.7489 44.394C39.7447 44.3955 39.7298 44.4006 39.6873 44.4006V45.4006C39.9697 45.4006 40.2111 45.3205 40.4455 45.1248C40.6405 44.962 40.8305 44.7172 41.0509 44.4199L40.2475 43.8244ZM43.1185 42.0795C41.5125 42.0795 40.719 43.1854 40.2469 43.8253L41.0515 44.419C41.539 43.7584 42.0624 43.0795 43.1185 43.0795V42.0795ZM45.9861 43.8198C45.5122 43.1806 44.7186 42.0795 43.1185 42.0795V43.0795C44.1698 43.0795 44.6931 43.7549 45.1828 44.4154L45.9861 43.8198ZM45.9897 43.8246L45.9863 43.82L45.1827 44.4152L45.1861 44.4198L45.9897 43.8246ZM46.5521 44.403C46.5096 44.403 46.4945 44.398 46.4899 44.3963C46.4855 44.3948 46.4687 44.3885 46.4334 44.3591C46.3454 44.2857 46.2232 44.1408 45.9901 43.8252L45.1856 44.4192C45.4065 44.7182 45.5971 44.9638 45.793 45.1272C46.028 45.3231 46.2699 45.403 46.5521 45.403V44.403ZM47.1123 43.8269C46.8788 44.1419 46.7572 44.2863 46.6694 44.3596C46.6342 44.389 46.6177 44.395 46.6137 44.3965C46.6095 44.398 46.5946 44.403 46.5521 44.403V45.403C46.8345 45.403 47.0759 45.3229 47.3103 45.1272C47.5052 44.9644 47.6953 44.7196 47.9156 44.4224L47.1123 43.8269ZM47.1157 43.8223L47.1123 43.8268L47.9156 44.4224L47.919 44.4179L47.1157 43.8223ZM49.9857 42.082C48.3835 42.082 47.5898 43.1827 47.1157 43.8223L47.919 44.4179C48.4085 43.7577 48.9319 43.082 49.9857 43.082V42.082ZM52.8532 43.8222C52.3793 43.183 51.5857 42.082 49.9857 42.082V43.082C51.0369 43.082 51.5603 43.7573 52.0499 44.4178L52.8532 43.8222ZM52.8566 43.8268L52.8532 43.8222L52.05 44.4179L52.0534 44.4225L52.8566 43.8268ZM53.4169 44.403C53.3744 44.403 53.3592 44.398 53.3546 44.3963C53.3502 44.3947 53.3335 44.3885 53.2983 44.3593C53.2108 44.2863 53.0892 44.1422 52.8574 43.8278L52.0526 44.4214C52.2723 44.7193 52.4624 44.9644 52.6582 45.1275C52.893 45.3232 53.1349 45.403 53.4169 45.403V44.403ZM53.9789 43.8252C53.7458 44.1408 53.6236 44.2857 53.5356 44.359C53.5002 44.3885 53.4835 44.3948 53.479 44.3963C53.4745 44.398 53.4594 44.403 53.4169 44.403V45.403C53.6991 45.403 53.9409 45.323 54.1759 45.1271C54.3719 44.9638 54.5625 44.7182 54.7833 44.4192L53.9789 43.8252ZM56.8504 42.0795C55.2469 42.0795 54.4511 43.1851 53.9788 43.8253L54.7834 44.419C55.2706 43.7587 55.7965 43.0795 56.8504 43.0795V42.0795ZM59.7204 43.8198C59.2462 43.1803 58.4526 42.0795 56.8504 42.0795V43.0795C57.9042 43.0795 58.4276 43.7552 58.9171 44.4154L59.7204 43.8198ZM59.7237 43.8243L59.7203 43.8197L58.9171 44.4155L58.9205 44.42L59.7237 43.8243ZM60.284 44.4006C60.2425 44.4006 60.2279 44.3956 60.2236 44.3941C60.2194 44.3926 60.2027 44.3864 60.1672 44.3568C60.0792 44.2835 59.9569 44.1388 59.7238 43.8244L58.9204 44.42C59.1413 44.7178 59.3318 44.9624 59.5271 45.1251C59.7612 45.3202 60.0022 45.4006 60.284 45.4006V44.4006ZM60.4274 44.884C60.2255 44.4266 60.2257 44.4265 60.2259 44.4264C60.226 44.4263 60.2262 44.4262 60.2264 44.4262C60.2267 44.426 60.227 44.4259 60.2273 44.4258C60.2279 44.4255 60.2285 44.4252 60.2292 44.425C60.2304 44.4244 60.2316 44.4239 60.2328 44.4234C60.2352 44.4224 60.2375 44.4214 60.2398 44.4205C60.2444 44.4186 60.2488 44.4169 60.2531 44.4154C60.2615 44.4123 60.2692 44.4098 60.276 44.4077C60.2895 44.4037 60.2995 44.4015 60.3052 44.4005C60.3163 44.3984 60.311 44.4006 60.284 44.4006V45.4006C60.3628 45.4006 60.4292 45.3944 60.4856 45.3841C60.5139 45.3789 60.54 45.3726 60.5639 45.3654C60.5758 45.3618 60.5872 45.358 60.5982 45.354C60.6036 45.352 60.609 45.3499 60.6142 45.3478C60.6168 45.3467 60.6193 45.3457 60.6219 45.3446C60.6231 45.3441 60.6244 45.3435 60.6257 45.343C60.6263 45.3427 60.6269 45.3424 60.6275 45.3422C60.6278 45.342 60.6282 45.3419 60.6285 45.3418C60.6286 45.3417 60.6289 45.3416 60.6289 45.3416C60.6292 45.3415 60.6294 45.3414 60.4274 44.884ZM60.1215 44.2718C60.0961 44.3537 60.0666 44.4485 60.0387 44.5285C60.0246 44.5688 60.0134 44.5981 60.0056 44.6165C60.0017 44.6257 60.0009 44.6267 60.0032 44.6223C60.0045 44.6198 60.008 44.6133 60.0138 44.6042C60.0191 44.5959 60.0302 44.5791 60.0476 44.5589L60.8073 45.2091C60.8746 45.1304 60.9135 45.0367 60.9254 45.0089C60.946 44.9606 60.9657 44.9072 60.9829 44.8579C61.0175 44.7586 61.0522 44.6467 61.0765 44.5683L60.1215 44.2718Z" fill="#222532"/>
<path d="M11.2883 31.1358C11.1684 30.991 10.0772 29.7308 8.68029 29.7308C8.03358 29.7308 7.10932 29.999 6.38266 31.2735L5.57129 32.6974H12.5911L11.2883 31.1358Z" fill="white" stroke="#222532"/>
<path fill-rule="evenodd" clip-rule="evenodd" d="M9.46384 34.5745L10.4304 34.6766L10.3082 35.6496C9.95302 38.2791 7.20622 41.0535 7.08864 41.1721L5.81634 42.4442L5.50121 40.6643C5.12728 38.5711 5.39302 36.962 6.28904 35.8822C7.54249 34.3704 9.46384 34.5745 9.46384 34.5745ZM7.73533 37.0997C7.56835 37.299 7.44371 37.553 7.3567 37.852L7.35671 37.852C7.5566 37.5506 7.74944 37.235 7.91406 36.9169C7.85291 36.9715 7.79177 37.0309 7.73533 37.0997Z" fill="white"/>
<path d="M10.4304 34.6766L10.9265 34.7389L10.9901 34.2329L10.4829 34.1793L10.4304 34.6766ZM9.46384 34.5745L9.41103 35.0717L9.41135 35.0718L9.46384 34.5745ZM10.3082 35.6496L10.8037 35.7165L10.8043 35.7119L10.3082 35.6496ZM7.08864 41.1721L7.44216 41.5257L7.4438 41.5241L7.08864 41.1721ZM5.81634 42.4442L5.324 42.5314L5.49129 43.4763L6.16987 42.7978L5.81634 42.4442ZM5.50121 40.6643L5.99355 40.5771L5.99342 40.5763L5.50121 40.6643ZM6.28904 35.8822L6.67382 36.2015L6.67394 36.2013L6.28904 35.8822ZM7.3567 37.852L6.87661 37.7123L6.82251 37.8982L6.90774 38.0721L7.3567 37.852ZM7.73533 37.0997L8.11866 37.4207L8.12195 37.4167L7.73533 37.0997ZM7.35671 37.852L6.90775 38.0721L7.29151 38.855L7.77339 38.1284L7.35671 37.852ZM7.91406 36.9169L8.3581 37.1468L7.58111 36.5439L7.91406 36.9169ZM10.4829 34.1793L9.51634 34.0773L9.41135 35.0718L10.3779 35.1738L10.4829 34.1793ZM10.8043 35.7119L10.9265 34.7389L9.93432 34.6143L9.81207 35.5873L10.8043 35.7119ZM7.4438 41.5241C7.51087 41.4564 8.24753 40.712 9.01526 39.6444C9.77355 38.5899 10.6092 37.1565 10.8037 35.7165L9.81267 35.5827C9.65201 36.7722 8.93667 38.0408 8.20338 39.0605C7.47952 40.0671 6.78398 40.7692 6.73347 40.8202L7.4438 41.5241ZM6.16987 42.7978L7.44216 41.5257L6.73511 40.8185L5.46282 42.0906L6.16987 42.7978ZM5.00887 40.7514L5.324 42.5314L6.30869 42.357L5.99355 40.5771L5.00887 40.7514ZM5.90426 35.5629C4.87443 36.8039 4.62263 38.5893 5.009 40.7522L5.99342 40.5763C5.63193 38.5528 5.91162 37.12 6.67382 36.2015L5.90426 35.5629ZM9.46384 34.5745C9.51666 34.0773 9.51645 34.0773 9.51623 34.0773C9.51614 34.0773 9.51591 34.0773 9.51575 34.0772C9.51541 34.0772 9.51505 34.0772 9.51466 34.0771C9.51387 34.077 9.51296 34.0769 9.51194 34.0768C9.50989 34.0766 9.50736 34.0764 9.50438 34.0761C9.49841 34.0756 9.49058 34.0749 9.48099 34.0741C9.4618 34.0726 9.43549 34.0709 9.40271 34.0693C9.3372 34.0662 9.24549 34.0639 9.13282 34.0664C8.90812 34.0714 8.59631 34.0958 8.24067 34.1728C7.5301 34.3266 6.62262 34.6965 5.90414 35.563L6.67394 36.2013C7.20891 35.5561 7.88883 35.2721 8.4523 35.1501C8.73368 35.0892 8.98055 35.0701 9.15528 35.0661C9.24232 35.0642 9.3105 35.066 9.35496 35.0681C9.37717 35.0692 9.39336 35.0703 9.40293 35.0711C9.40771 35.0715 9.41083 35.0717 9.41221 35.0719C9.4129 35.0719 9.41315 35.072 9.41296 35.0719C9.41286 35.0719 9.41265 35.0719 9.41233 35.0719C9.41217 35.0719 9.41198 35.0718 9.41176 35.0718C9.41165 35.0718 9.41147 35.0718 9.41142 35.0718C9.41122 35.0718 9.41103 35.0717 9.46384 34.5745ZM7.83679 37.9917C7.9098 37.7408 8.00697 37.5541 8.11864 37.4207L7.35202 36.7786C7.12973 37.044 6.97763 37.3652 6.87661 37.7123L7.83679 37.9917ZM7.80567 37.6319L7.80566 37.6319L6.90774 38.0721L6.90775 38.0721L7.80567 37.6319ZM7.47003 36.6871C7.31612 36.9844 7.13341 37.2841 6.94002 37.5757L7.77339 38.1284C7.97979 37.8172 8.18277 37.4855 8.3581 37.1468L7.47003 36.6871ZM8.12195 37.4167C8.15577 37.3755 8.19615 37.3354 8.24702 37.29L7.58111 36.5439C7.50967 36.6077 7.42777 36.6862 7.34871 36.7826L8.12195 37.4167Z" fill="#222532"/>
<path fill-rule="evenodd" clip-rule="evenodd" d="M16.7066 29.2913C16.7066 30.2833 15.9046 31.0902 14.9216 31.0902C13.9386 31.0902 13.139 30.2833 13.139 29.2913C13.139 28.2993 13.9386 27.4924 14.9216 27.4924C15.907 27.4924 16.7066 28.2993 16.7066 29.2913ZM15.0204 29.2913C15.0204 29.2367 14.9757 29.1916 14.9216 29.1916C14.8675 29.1916 14.8252 29.2367 14.8252 29.2913C14.8252 29.4005 15.0204 29.4005 15.0204 29.2913Z" fill="white"/>
<path d="M14.9216 31.5902C16.1842 31.5902 17.2066 30.556 17.2066 29.2913H16.2066C16.2066 30.0106 15.6251 30.5902 14.9216 30.5902V31.5902ZM12.639 29.2913C12.639 30.5552 13.6582 31.5902 14.9216 31.5902V30.5902C14.219 30.5902 13.639 30.0115 13.639 29.2913H12.639ZM14.9216 26.9924C13.6582 26.9924 12.639 28.0275 12.639 29.2913H13.639C13.639 28.5712 14.219 27.9924 14.9216 27.9924V26.9924ZM17.2066 29.2913C17.2066 28.0271 16.187 26.9924 14.9216 26.9924V27.9924C15.627 27.9924 16.2066 28.5716 16.2066 29.2913H17.2066ZM14.9216 29.6916C14.6953 29.6916 14.5204 29.5086 14.5204 29.2913H15.5204C15.5204 28.9649 15.2561 28.6916 14.9216 28.6916V29.6916ZM15.3252 29.2913C15.3252 29.4927 15.1634 29.6916 14.9216 29.6916V28.6916C14.5716 28.6916 14.3252 28.9808 14.3252 29.2913H15.3252ZM14.5204 29.2913C14.5204 29.1492 14.5923 29.0255 14.691 28.9519C14.7754 28.8889 14.8619 28.8732 14.9228 28.8732C14.9837 28.8732 15.0702 28.8889 15.1546 28.9519C15.2533 29.0255 15.3252 29.1492 15.3252 29.2913H14.3252C14.3252 29.488 14.4215 29.6526 14.5568 29.7535C14.6778 29.8438 14.8131 29.8732 14.9228 29.8732C15.0325 29.8732 15.1678 29.8438 15.2888 29.7535C15.4241 29.6526 15.5204 29.488 15.5204 29.2913H14.5204Z" fill="#222532"/>
</g>
<defs>
<filter id="filter0_d" x="0.710938" y="0.875366" width="67.4501" height="54.4176" filterUnits="userSpaceOnUse" color-interpolation-filters="sRGB">
<feFlood flood-opacity="0" result="BackgroundImageFix"/>
<feColorMatrix in="SourceAlpha" type="matrix" values="0 0 0 0 0 0 0 0 0 0 0 0 0 0 0 0 0 0 127 0"/>
<feOffset dy="4"/>
<feGaussianBlur stdDeviation="2"/>
<feColorMatrix type="matrix" values="0 0 0 0 0 0 0 0 0 0 0 0 0 0 0 0 0 0 0.25 0"/>
<feBlend mode="normal" in2="BackgroundImageFix" result="effect1_dropShadow"/>
<feBlend mode="normal" in="SourceGraphic" in2="effect1_dropShadow" result="shape"/>
</filter>
</defs>
</svg>
